<svg xmlns="http://www.w3.org/2000/svg" version="1.1" xmlns:xlink="http://www.w3.org/1999/xlink" xmlns:svgjs="http://svgjs.dev/svgjs" width="1440" height="560" preserveAspectRatio="none" viewBox="0 0 1440 560"><g mask="url(&quot;#SvgjsMask1000&quot;)" fill="none"><rect width="1440" height="560" x="0" y="0" fill="#0e2a47"></rect><path d="M-42.2 515.94L-42.2 515.94" stroke="#132e65" stroke-width="1.5"></path><path d="M-42.2 515.94L103.06 531.73" stroke="#132e65" stroke-width="1.5"></path><path d="M-42.2 515.94L54.63 391.99" stroke="#132e65" stroke-width="1.5"></path><path d="M-88.35 689.56L-88.35 689.56" stroke="#132e65" stroke-width="1.5"></path><path d="M-88.35 689.56L-42.2 515.94" stroke="#132e65" stroke-width="1.5"></path><path d="M-88.35 689.56L103.06 531.73" stroke="#132e65" stroke-width="1.5"></path><path d="M-88.35 689.56L54.63 391.99" stroke="#132e65" stroke-width="1.5"></path><path d="M54.63 391.99L54.63 391.99" stroke="#132e65" stroke-width="1.5"></path><path d="M54.63 391.99L103.06 531.73" stroke="#132e65" stroke-width="1.5"></path><path d="M54.63 391.99L209.55 405.35" stroke="#132e65" stroke-width="1.5"></path><path d="M103.06 531.73L103.06 531.73" stroke="#132e65" stroke-width="1.5"></path><path d="M103.06 531.73L233.17 522.2" stroke="#132e65" stroke-width="1.5"></path><path d="M103.06 531.73L209.55 405.35" stroke="#132e65" stroke-width="1.5"></path><path d="M209.55 405.35L209.55 405.35" stroke="#132e65" stroke-width="1.5"></path><path d="M209.55 405.35L233.17 522.2" stroke="#132e65" stroke-width="1.5"></path><path d="M209.55 405.35L345.15 361.02" stroke="#132e65" stroke-width="1.5"></path><path d="M233.17 522.2L233.17 522.2" stroke="#132e65" stroke-width="1.5"></path><path d="M242.4 665.34L242.4 665.34" stroke="#132e65" stroke-width="1.5"></path><path d="M242.4 665.34L233.17 522.2" stroke="#132e65" stroke-width="1.5"></path><path d="M242.4 665.34L393.66 705.34" stroke="#132e65" stroke-width="1.5"></path><path d="M242.4 665.34L103.06 531.73" stroke="#132e65" stroke-width="1.5"></path><path d="M242.4 665.34L397.68 509.3" stroke="#132e65" stroke-width="1.5"></path><path d="M242.4 665.34L491 709.89" stroke="#132e65" stroke-width="1.5"></path><path d="M242.4 665.34L209.55 405.35" stroke="#132e65" stroke-width="1.5"></path><path d="M345.15 361.02L345.15 361.02" stroke="#132e65" stroke-width="1.5"></path><path d="M345.15 361.02L397.68 509.3" stroke="#132e65" stroke-width="1.5"></path><path d="M397.68 509.3L397.68 509.3" stroke="#132e65" stroke-width="1.5"></path><path d="M397.68 509.3L533.54 551.95" stroke="#132e65" stroke-width="1.5"></path><path d="M393.66 705.34L393.66 705.34" stroke="#132e65" stroke-width="1.5"></path><path d="M393.66 705.34L491 709.89" stroke="#132e65" stroke-width="1.5"></path><path d="M393.66 705.34L397.68 509.3" stroke="#132e65" stroke-width="1.5"></path><path d="M393.66 705.34L533.54 551.95" stroke="#132e65" stroke-width="1.5"></path><path d="M393.66 705.34L233.17 522.2" stroke="#132e65" stroke-width="1.5"></path><path d="M393.66 705.34L645.17 693.02" stroke="#132e65" stroke-width="1.5"></path><path d="M539.91 393.99L539.91 393.99" stroke="#132e65" stroke-width="1.5"></path><path d="M539.91 393.99L682.73 382.52" stroke="#132e65" stroke-width="1.5"></path><path d="M539.91 393.99L533.54 551.95" stroke="#132e65" stroke-width="1.5"></path><path d="M539.91 393.99L397.68 509.3" stroke="#132e65" stroke-width="1.5"></path><path d="M533.54 551.95L533.54 551.95" stroke="#132e65" stroke-width="1.5"></path><path d="M533.54 551.95L650.83 560.18" stroke="#132e65" stroke-width="1.5"></path><path d="M491 709.89L491 709.89" stroke="#132e65" stroke-width="1.5"></path><path d="M491 709.89L645.17 693.02" stroke="#132e65" stroke-width="1.5"></path><path d="M491 709.89L533.54 551.95" stroke="#132e65" stroke-width="1.5"></path><path d="M491 709.89L650.83 560.18" stroke="#132e65" stroke-width="1.5"></path><path d="M491 709.89L397.68 509.3" stroke="#132e65" stroke-width="1.5"></path><path d="M682.73 382.52L682.73 382.52" stroke="#132e65" stroke-width="1.5"></path><path d="M682.73 382.52L859.51 361.53" stroke="#132e65" stroke-width="1.5"></path><path d="M650.83 560.18L650.83 560.18" stroke="#132e65" stroke-width="1.5"></path><path d="M650.83 560.18L645.17 693.02" stroke="#132e65" stroke-width="1.5"></path><path d="M650.83 560.18L809.8 523" stroke="#132e65" stroke-width="1.5"></path><path d="M650.83 560.18L682.73 382.52" stroke="#132e65" stroke-width="1.5"></path><path d="M650.83 560.18L539.91 393.99" stroke="#132e65" stroke-width="1.5"></path><path d="M645.17 693.02L645.17 693.02" stroke="#132e65" stroke-width="1.5"></path><path d="M645.17 693.02L804.15 710.69" stroke="#132e65" stroke-width="1.5"></path><path d="M645.17 693.02L533.54 551.95" stroke="#132e65" stroke-width="1.5"></path><path d="M645.17 693.02L809.8 523" stroke="#132e65" stroke-width="1.5"></path><path d="M809.95 241.3L809.95 241.3" stroke="#132e65" stroke-width="1.5"></path><path d="M809.95 241.3L859.51 361.53" stroke="#132e65" stroke-width="1.5"></path><path d="M809.95 241.3L988.15 250.25" stroke="#132e65" stroke-width="1.5"></path><path d="M809.95 241.3L682.73 382.52" stroke="#132e65" stroke-width="1.5"></path><path d="M809.95 241.3L989.61 356.99" stroke="#132e65" stroke-width="1.5"></path><path d="M809.95 241.3L1009.38 53.21" stroke="#132e65" stroke-width="1.5"></path><path d="M809.95 241.3L809.8 523" stroke="#132e65" stroke-width="1.5"></path><path d="M859.51 361.53L859.51 361.53" stroke="#132e65" stroke-width="1.5"></path><path d="M859.51 361.53L989.61 356.99" stroke="#132e65" stroke-width="1.5"></path><path d="M859.51 361.53L809.8 523" stroke="#132e65" stroke-width="1.5"></path><path d="M859.51 361.53L988.15 250.25" stroke="#132e65" stroke-width="1.5"></path><path d="M809.8 523L809.8 523" stroke="#132e65" stroke-width="1.5"></path><path d="M809.8 523L940.22 525.11" stroke="#132e65" stroke-width="1.5"></path><path d="M809.8 523L938.16 653.23" stroke="#132e65" stroke-width="1.5"></path><path d="M804.15 710.69L804.15 710.69" stroke="#132e65" stroke-width="1.5"></path><path d="M804.15 710.69L938.16 653.23" stroke="#132e65" stroke-width="1.5"></path><path d="M804.15 710.69L809.8 523" stroke="#132e65" stroke-width="1.5"></path><path d="M804.15 710.69L650.83 560.18" stroke="#132e65" stroke-width="1.5"></path><path d="M804.15 710.69L940.22 525.11" stroke="#132e65" stroke-width="1.5"></path><path d="M804.15 710.69L1087.53 672.81" stroke="#132e65" stroke-width="1.5"></path><path d="M973.69 -71.76L973.69 -71.76" stroke="#132e65" stroke-width="1.5"></path><path d="M973.69 -71.76L1009.38 53.21" stroke="#132e65" stroke-width="1.5"></path><path d="M973.69 -71.76L1115.76 -68.97" stroke="#132e65" stroke-width="1.5"></path><path d="M973.69 -71.76L1091.13 92.29" stroke="#132e65" stroke-width="1.5"></path><path d="M973.69 -71.76L1257.67 -45.37" stroke="#132e65" stroke-width="1.5"></path><path d="M1009.38 53.21L1009.38 53.21" stroke="#132e65" stroke-width="1.5"></path><path d="M1009.38 53.21L1091.13 92.29" stroke="#132e65" stroke-width="1.5"></path><path d="M1009.38 53.21L1115.76 -68.97" stroke="#132e65" stroke-width="1.5"></path><path d="M1009.38 53.21L1100.29 211.19" stroke="#132e65" stroke-width="1.5"></path><path d="M988.15 250.25L988.15 250.25" stroke="#132e65" stroke-width="1.5"></path><path d="M988.15 250.25L989.61 356.99" stroke="#132e65" stroke-width="1.5"></path><path d="M988.15 250.25L1100.29 211.19" stroke="#132e65" stroke-width="1.5"></path><path d="M989.61 356.99L989.61 356.99" stroke="#132e65" stroke-width="1.5"></path><path d="M989.61 356.99L1154.25 363.02" stroke="#132e65" stroke-width="1.5"></path><path d="M989.61 356.99L940.22 525.11" stroke="#132e65" stroke-width="1.5"></path><path d="M989.61 356.99L1100.29 211.19" stroke="#132e65" stroke-width="1.5"></path><path d="M940.22 525.11L940.22 525.11" stroke="#132e65" stroke-width="1.5"></path><path d="M940.22 525.11L938.16 653.23" stroke="#132e65" stroke-width="1.5"></path><path d="M940.22 525.11L1101.5 544.71" stroke="#132e65" stroke-width="1.5"></path><path d="M938.16 653.23L938.16 653.23" stroke="#132e65" stroke-width="1.5"></path><path d="M938.16 653.23L1087.53 672.81" stroke="#132e65" stroke-width="1.5"></path><path d="M1115.76 -68.97L1115.76 -68.97" stroke="#132e65" stroke-width="1.5"></path><path d="M1115.76 -68.97L1257.67 -45.37" stroke="#132e65" stroke-width="1.5"></path><path d="M1115.76 -68.97L1091.13 92.29" stroke="#132e65" stroke-width="1.5"></path><path d="M1115.76 -68.97L1297.4 111.5" stroke="#132e65" stroke-width="1.5"></path><path d="M1091.13 92.29L1091.13 92.29" stroke="#132e65" stroke-width="1.5"></path><path d="M1091.13 92.29L1100.29 211.19" stroke="#132e65" stroke-width="1.5"></path><path d="M1100.29 211.19L1100.29 211.19" stroke="#132e65" stroke-width="1.5"></path><path d="M1100.29 211.19L1154.25 363.02" stroke="#132e65" stroke-width="1.5"></path><path d="M1100.29 211.19L1262.62 188.35" stroke="#132e65" stroke-width="1.5"></path><path d="M1154.25 363.02L1154.25 363.02" stroke="#132e65" stroke-width="1.5"></path><path d="M1154.25 363.02L1284.17 404.48" stroke="#132e65" stroke-width="1.5"></path><path d="M1154.25 363.02L1280.87 499.76" stroke="#132e65" stroke-width="1.5"></path><path d="M1154.25 363.02L1101.5 544.71" stroke="#132e65" stroke-width="1.5"></path><path d="M1101.5 544.71L1101.5 544.71" stroke="#132e65" stroke-width="1.5"></path><path d="M1101.5 544.71L1087.53 672.81" stroke="#132e65" stroke-width="1.5"></path><path d="M1101.5 544.71L1280.87 499.76" stroke="#132e65" stroke-width="1.5"></path><path d="M1101.5 544.71L938.16 653.23" stroke="#132e65" stroke-width="1.5"></path><path d="M1101.5 544.71L989.61 356.99" stroke="#132e65" stroke-width="1.5"></path><path d="M1087.53 672.81L1087.53 672.81" stroke="#132e65" stroke-width="1.5"></path><path d="M1087.53 672.81L1277.39 690.33" stroke="#132e65" stroke-width="1.5"></path><path d="M1087.53 672.81L940.22 525.11" stroke="#132e65" stroke-width="1.5"></path><path d="M1087.53 672.81L1280.87 499.76" stroke="#132e65" stroke-width="1.5"></path><path d="M1257.67 -45.37L1257.67 -45.37" stroke="#132e65" stroke-width="1.5"></path><path d="M1257.67 -45.37L1397.6 -56.82" stroke="#132e65" stroke-width="1.5"></path><path d="M1297.4 111.5L1297.4 111.5" stroke="#132e65" stroke-width="1.5"></path><path d="M1297.4 111.5L1262.62 188.35" stroke="#132e65" stroke-width="1.5"></path><path d="M1297.4 111.5L1406.4 102.64" stroke="#132e65" stroke-width="1.5"></path><path d="M1297.4 111.5L1257.67 -45.37" stroke="#132e65" stroke-width="1.5"></path><path d="M1297.4 111.5L1444.12 201.36" stroke="#132e65" stroke-width="1.5"></path><path d="M1262.62 188.35L1262.62 188.35" stroke="#132e65" stroke-width="1.5"></path><path d="M1262.62 188.35L1406.4 102.64" stroke="#132e65" stroke-width="1.5"></path><path d="M1262.62 188.35L1444.12 201.36" stroke="#132e65" stroke-width="1.5"></path><path d="M1284.17 404.48L1284.17 404.48" stroke="#132e65" stroke-width="1.5"></path><path d="M1284.17 404.48L1280.87 499.76" stroke="#132e65" stroke-width="1.5"></path><path d="M1284.17 404.48L1388.86 363.14" stroke="#132e65" stroke-width="1.5"></path><path d="M1280.87 499.76L1280.87 499.76" stroke="#132e65" stroke-width="1.5"></path><path d="M1280.87 499.76L1388.86 363.14" stroke="#132e65" stroke-width="1.5"></path><path d="M1280.87 499.76L1454.75 561.1" stroke="#132e65" stroke-width="1.5"></path><path d="M1280.87 499.76L1277.39 690.33" stroke="#132e65" stroke-width="1.5"></path><path d="M1277.39 690.33L1277.39 690.33" stroke="#132e65" stroke-width="1.5"></path><path d="M1277.39 690.33L1462.14 656.09" stroke="#132e65" stroke-width="1.5"></path><path d="M1277.39 690.33L1454.75 561.1" stroke="#132e65" stroke-width="1.5"></path><path d="M1277.39 690.33L1101.5 544.71" stroke="#132e65" stroke-width="1.5"></path><path d="M1277.39 690.33L1284.17 404.48" stroke="#132e65" stroke-width="1.5"></path><path d="M1397.6 -56.82L1397.6 -56.82" stroke="#132e65" stroke-width="1.5"></path><path d="M1397.6 -56.82L1406.4 102.64" stroke="#132e65" stroke-width="1.5"></path><path d="M1397.6 -56.82L1588.35 -46.51" stroke="#132e65" stroke-width="1.5"></path><path d="M1406.4 102.64L1406.4 102.64" stroke="#132e65" stroke-width="1.5"></path><path d="M1406.4 102.64L1444.12 201.36" stroke="#132e65" stroke-width="1.5"></path><path d="M1406.4 102.64L1548.4 85.91" stroke="#132e65" stroke-width="1.5"></path><path d="M1444.12 201.36L1444.12 201.36" stroke="#132e65" stroke-width="1.5"></path><path d="M1444.12 201.36L1544.65 215.43" stroke="#132e65" stroke-width="1.5"></path><path d="M1444.12 201.36L1548.4 85.91" stroke="#132e65" stroke-width="1.5"></path><path d="M1444.12 201.36L1388.86 363.14" stroke="#132e65" stroke-width="1.5"></path><path d="M1388.86 363.14L1388.86 363.14" stroke="#132e65" stroke-width="1.5"></path><path d="M1454.75 561.1L1454.75 561.1" stroke="#132e65" stroke-width="1.5"></path><path d="M1454.75 561.1L1462.14 656.09" stroke="#132e65" stroke-width="1.5"></path><path d="M1454.75 561.1L1586.17 488.19" stroke="#132e65" stroke-width="1.5"></path><path d="M1454.75 561.1L1597.51 643.23" stroke="#132e65" stroke-width="1.5"></path><path d="M1462.14 656.09L1462.14 656.09" stroke="#132e65" stroke-width="1.5"></path><path d="M1462.14 656.09L1597.51 643.23" stroke="#132e65" stroke-width="1.5"></path><path d="M1588.35 -46.51L1588.35 -46.51" stroke="#132e65" stroke-width="1.5"></path><path d="M1588.35 -46.51L1548.4 85.91" stroke="#132e65" stroke-width="1.5"></path><path d="M1588.35 -46.51L1406.4 102.64" stroke="#132e65" stroke-width="1.5"></path><path d="M1588.35 -46.51L1544.65 215.43" stroke="#132e65" stroke-width="1.5"></path><path d="M1548.4 85.91L1548.4 85.91" stroke="#132e65" stroke-width="1.5"></path><path d="M1548.4 85.91L1544.65 215.43" stroke="#132e65" stroke-width="1.5"></path><path d="M1544.65 215.43L1544.65 215.43" stroke="#132e65" stroke-width="1.5"></path><path d="M1593.9 357.76L1593.9 357.76" stroke="#132e65" stroke-width="1.5"></path><path d="M1593.9 357.76L1586.17 488.19" stroke="#132e65" stroke-width="1.5"></path><path d="M1586.17 488.19L1586.17 488.19" stroke="#132e65" stroke-width="1.5"></path><path d="M1597.51 643.23L1597.51 643.23" stroke="#132e65" stroke-width="1.5"></path><path d="M1597.51 643.23L1586.17 488.19" stroke="#132e65" stroke-width="1.5"></path><circle r="5" cx="-42.2" cy="515.94" fill="#132e65"></circle><circle r="5" cx="-88.35" cy="689.56" fill="#132e65"></circle><circle r="5" cx="54.63" cy="391.99" fill="#132e65"></circle><circle r="5" cx="103.06" cy="531.73" fill="#132e65"></circle><circle r="5" cx="209.55" cy="405.35" fill="#132e65"></circle><circle r="5" cx="233.17" cy="522.2" fill="#132e65"></circle><circle r="5" cx="242.4" cy="665.34" fill="#132e65"></circle><circle r="5" cx="345.15" cy="361.02" fill="#132e65"></circle><circle r="5" cx="397.68" cy="509.3" fill="#132e65"></circle><circle r="5" cx="393.66" cy="705.34" fill="#132e65"></circle><circle r="5" cx="539.91" cy="393.99" fill="#132e65"></circle><circle r="5" cx="533.54" cy="551.95" fill="#132e65"></circle><circle r="5" cx="491" cy="709.89" fill="#132e65"></circle><circle r="5" cx="682.73" cy="382.52" fill="#132e65"></circle><circle r="5" cx="650.83" cy="560.18" fill="#132e65"></circle><circle r="5" cx="645.17" cy="693.02" fill="#132e65"></circle><circle r="5" cx="809.95" cy="241.3" fill="#132e65"></circle><circle r="5" cx="859.51" cy="361.53" fill="#132e65"></circle><circle r="5" cx="809.8" cy="523" fill="#132e65"></circle><circle r="5" cx="804.15" cy="710.69" fill="#132e65"></circle><circle r="5" cx="973.69" cy="-71.76" fill="#132e65"></circle><circle r="5" cx="1009.38" cy="53.21" fill="#132e65"></circle><circle r="5" cx="988.15" cy="250.25" fill="#132e65"></circle><circle r="5" cx="989.61" cy="356.99" fill="#132e65"></circle><circle r="5" cx="940.22" cy="525.11" fill="#132e65"></circle><circle r="5" cx="938.16" cy="653.23" fill="#132e65"></circle><circle r="5" cx="1115.76" cy="-68.97" fill="#132e65"></circle><circle r="5" cx="1091.13" cy="92.29" fill="#132e65"></circle><circle r="5" cx="1100.29" cy="211.19" fill="#132e65"></circle><circle r="5" cx="1154.25" cy="363.02" fill="#132e65"></circle><circle r="5" cx="1101.5" cy="544.71" fill="#132e65"></circle><circle r="5" cx="1087.53" cy="672.81" fill="#132e65"></circle><circle r="5" cx="1257.67" cy="-45.37" fill="#132e65"></circle><circle r="5" cx="1297.4" cy="111.5" fill="#132e65"></circle><circle r="5" cx="1262.62" cy="188.35" fill="#132e65"></circle><circle r="5" cx="1284.17" cy="404.48" fill="#132e65"></circle><circle r="5" cx="1280.87" cy="499.76" fill="#132e65"></circle><circle r="5" cx="1277.39" cy="690.33" fill="#132e65"></circle><circle r="5" cx="1397.6" cy="-56.82" fill="#132e65"></circle><circle r="5" cx="1406.4" cy="102.64" fill="#132e65"></circle><circle r="5" cx="1444.12" cy="201.36" fill="#132e65"></circle><circle r="5" cx="1388.86" cy="363.14" fill="#132e65"></circle><circle r="5" cx="1454.75" cy="561.1" fill="#132e65"></circle><circle r="5" cx="1462.14" cy="656.09" fill="#132e65"></circle><circle r="5" cx="1588.35" cy="-46.51" fill="#132e65"></circle><circle r="5" cx="1548.4" cy="85.91" fill="#132e65"></circle><circle r="5" cx="1544.65" cy="215.43" fill="#132e65"></circle><circle r="5" cx="1593.9" cy="357.76" fill="#132e65"></circle><circle r="5" cx="1586.17" cy="488.19" fill="#132e65"></circle><circle r="5" cx="1597.51" cy="643.23" fill="#132e65"></circle><path d="M401.73 660.4L401.73 660.4" stroke="hsl(228.5, 77.2%, 51.5%)" stroke-width="1.5"></path><path d="M401.73 660.4L350.64 518.35" stroke="hsl(228.5, 77.2%, 51.5%)" stroke-width="1.5"></path><path d="M401.73 660.4L508.79 501.09" stroke="hsl(228.5, 77.2%, 51.5%)" stroke-width="1.5"></path><path d="M401.73 660.4L196.17 691.05" stroke="hsl(228.5, 77.2%, 51.5%)" stroke-width="1.5"></path><path d="M401.73 660.4L198.76 541.63" stroke="hsl(228.5, 77.2%, 51.5%)" stroke-width="1.5"></path><path d="M401.73 660.4L708.03 645.62" stroke="hsl(228.5, 77.2%, 51.5%)" stroke-width="1.5"></path><path d="M401.73 660.4L684.42 534.19" stroke="hsl(228.5, 77.2%, 51.5%)" stroke-width="1.5"></path><path d="M844.36 346.65L844.36 346.65" stroke="hsl(228.5, 77.2%, 51.5%)" stroke-width="1.5"></path><path d="M844.36 346.65L981.52 355.04" stroke="hsl(228.5, 77.2%, 51.5%)" stroke-width="1.5"></path><path d="M844.36 346.65L975.24 259.16" stroke="hsl(228.5, 77.2%, 51.5%)" stroke-width="1.5"></path><path d="M844.36 346.65L676.09 401.56" stroke="hsl(228.5, 77.2%, 51.5%)" stroke-width="1.5"></path><path d="M975.24 259.16L975.24 259.16" stroke="hsl(228.5, 77.2%, 51.5%)" stroke-width="1.5"></path><path d="M975.24 259.16L981.52 355.04" stroke="hsl(228.5, 77.2%, 51.5%)" stroke-width="1.5"></path><path d="M975.24 259.16L1100.69 248.09" stroke="hsl(228.5, 77.2%, 51.5%)" stroke-width="1.5"></path><path d="M975.24 259.16L1093.14 379.82" stroke="hsl(228.5, 77.2%, 51.5%)" stroke-width="1.5"></path><path d="M975.24 259.16L975.52 497.74" stroke="hsl(228.5, 77.2%, 51.5%)" stroke-width="1.5"></path><path d="M981.52 355.04L981.52 355.04" stroke="hsl(228.5, 77.2%, 51.5%)" stroke-width="1.5"></path><path d="M981.52 355.04L1093.14 379.82" stroke="hsl(228.5, 77.2%, 51.5%)" stroke-width="1.5"></path><path d="M981.52 355.04L975.52 497.74" stroke="hsl(228.5, 77.2%, 51.5%)" stroke-width="1.5"></path><path d="M981.52 355.04L1100.69 248.09" stroke="hsl(228.5, 77.2%, 51.5%)" stroke-width="1.5"></path><path d="M981.52 355.04L1159.35 514.41" stroke="hsl(228.5, 77.2%, 51.5%)" stroke-width="1.5"></path><path d="M1159.35 514.41L1159.35 514.41" stroke="hsl(228.5, 77.2%, 51.5%)" stroke-width="1.5"></path><path d="M1159.35 514.41L1299.78 523.56" stroke="hsl(228.5, 77.2%, 51.5%)" stroke-width="1.5"></path><path d="M1159.35 514.41L1093.14 379.82" stroke="hsl(228.5, 77.2%, 51.5%)" stroke-width="1.5"></path><path d="M1114.71 669.06L1114.71 669.06" stroke="hsl(228.5, 77.2%, 51.5%)" stroke-width="1.5"></path><path d="M1114.71 669.06L1001.42 687.72" stroke="hsl(228.5, 77.2%, 51.5%)" stroke-width="1.5"></path><path d="M1114.71 669.06L1250.77 660.97" stroke="hsl(228.5, 77.2%, 51.5%)" stroke-width="1.5"></path><path d="M1114.71 669.06L1159.35 514.41" stroke="hsl(228.5, 77.2%, 51.5%)" stroke-width="1.5"></path><path d="M1114.71 669.06L975.52 497.74" stroke="hsl(228.5, 77.2%, 51.5%)" stroke-width="1.5"></path><path d="M1114.71 669.06L1299.78 523.56" stroke="hsl(228.5, 77.2%, 51.5%)" stroke-width="1.5"></path><path d="M1114.71 669.06L1093.14 379.82" stroke="hsl(228.5, 77.2%, 51.5%)" stroke-width="1.5"></path><path d="M1299.78 523.56L1299.78 523.56" stroke="hsl(228.5, 77.2%, 51.5%)" stroke-width="1.5"></path><path d="M1299.78 523.56L1404.5 552.63" stroke="hsl(228.5, 77.2%, 51.5%)" stroke-width="1.5"></path><path d="M1299.78 523.56L1304.13 402.36" stroke="hsl(228.5, 77.2%, 51.5%)" stroke-width="1.5"></path><path d="M1299.78 523.56L1250.77 660.97" stroke="hsl(228.5, 77.2%, 51.5%)" stroke-width="1.5"></path><path d="M1415.21 228.68L1415.21 228.68" stroke="hsl(228.5, 77.2%, 51.5%)" stroke-width="1.5"></path><path d="M1415.21 228.68L1434.77 111.22" stroke="hsl(228.5, 77.2%, 51.5%)" stroke-width="1.5"></path><path d="M1415.21 228.68L1565.35 211.85" stroke="hsl(228.5, 77.2%, 51.5%)" stroke-width="1.5"></path><path d="M1415.21 228.68L1262.5 206.53" stroke="hsl(228.5, 77.2%, 51.5%)" stroke-width="1.5"></path><path d="M1415.21 228.68L1300.81 65.52" stroke="hsl(228.5, 77.2%, 51.5%)" stroke-width="1.5"></path><path d="M1543.09 44.35L1543.09 44.35" stroke="hsl(228.5, 77.2%, 51.5%)" stroke-width="1.5"></path><path d="M1543.09 44.35L1434.77 111.22" stroke="hsl(228.5, 77.2%, 51.5%)" stroke-width="1.5"></path><path d="M1543.09 44.35L1552.37 -84.78" stroke="hsl(228.5, 77.2%, 51.5%)" stroke-width="1.5"></path><path d="M1543.09 44.35L1412.57 -43.02" stroke="hsl(228.5, 77.2%, 51.5%)" stroke-width="1.5"></path><path d="M-62.39 518.15L-62.39 518.15" stroke="hsl(228.5, 77.2%, 51.5%)" stroke-width="1.5"></path><path d="M-62.39 518.15L109.86 544.59" stroke="hsl(228.5, 77.2%, 51.5%)" stroke-width="1.5"></path><path d="M-62.39 518.15L38.92 665.8" stroke="hsl(228.5, 77.2%, 51.5%)" stroke-width="1.5"></path><path d="M-62.39 518.15L198.76 541.63" stroke="hsl(228.5, 77.2%, 51.5%)" stroke-width="1.5"></path><path d="M109.86 544.59L109.86 544.59" stroke="hsl(228.5, 77.2%, 51.5%)" stroke-width="1.5"></path><path d="M109.86 544.59L198.76 541.63" stroke="hsl(228.5, 77.2%, 51.5%)" stroke-width="1.5"></path><path d="M109.86 544.59L38.92 665.8" stroke="hsl(228.5, 77.2%, 51.5%)" stroke-width="1.5"></path><path d="M109.86 544.59L196.17 691.05" stroke="hsl(228.5, 77.2%, 51.5%)" stroke-width="1.5"></path><path d="M109.86 544.59L350.64 518.35" stroke="hsl(228.5, 77.2%, 51.5%)" stroke-width="1.5"></path><path d="M38.92 665.8L38.92 665.8" stroke="hsl(228.5, 77.2%, 51.5%)" stroke-width="1.5"></path><path d="M38.92 665.8L196.17 691.05" stroke="hsl(228.5, 77.2%, 51.5%)" stroke-width="1.5"></path><path d="M198.76 541.63L198.76 541.63" stroke="hsl(228.5, 77.2%, 51.5%)" stroke-width="1.5"></path><path d="M198.76 541.63L196.17 691.05" stroke="hsl(228.5, 77.2%, 51.5%)" stroke-width="1.5"></path><path d="M198.76 541.63L350.64 518.35" stroke="hsl(228.5, 77.2%, 51.5%)" stroke-width="1.5"></path><path d="M196.17 691.05L196.17 691.05" stroke="hsl(228.5, 77.2%, 51.5%)" stroke-width="1.5"></path><path d="M196.17 691.05L350.64 518.35" stroke="hsl(228.5, 77.2%, 51.5%)" stroke-width="1.5"></path><path d="M350.64 518.35L350.64 518.35" stroke="hsl(228.5, 77.2%, 51.5%)" stroke-width="1.5"></path><path d="M350.64 518.35L508.79 501.09" stroke="hsl(228.5, 77.2%, 51.5%)" stroke-width="1.5"></path><path d="M508.79 501.09L508.79 501.09" stroke="hsl(228.5, 77.2%, 51.5%)" stroke-width="1.5"></path><path d="M508.79 501.09L684.42 534.19" stroke="hsl(228.5, 77.2%, 51.5%)" stroke-width="1.5"></path><path d="M508.79 501.09L676.09 401.56" stroke="hsl(228.5, 77.2%, 51.5%)" stroke-width="1.5"></path><path d="M508.79 501.09L708.03 645.62" stroke="hsl(228.5, 77.2%, 51.5%)" stroke-width="1.5"></path><path d="M676.09 401.56L676.09 401.56" stroke="hsl(228.5, 77.2%, 51.5%)" stroke-width="1.5"></path><path d="M676.09 401.56L684.42 534.19" stroke="hsl(228.5, 77.2%, 51.5%)" stroke-width="1.5"></path><path d="M676.09 401.56L794.68 524.78" stroke="hsl(228.5, 77.2%, 51.5%)" stroke-width="1.5"></path><path d="M684.42 534.19L684.42 534.19" stroke="hsl(228.5, 77.2%, 51.5%)" stroke-width="1.5"></path><path d="M684.42 534.19L794.68 524.78" stroke="hsl(228.5, 77.2%, 51.5%)" stroke-width="1.5"></path><path d="M684.42 534.19L708.03 645.62" stroke="hsl(228.5, 77.2%, 51.5%)" stroke-width="1.5"></path><path d="M708.03 645.62L708.03 645.62" stroke="hsl(228.5, 77.2%, 51.5%)" stroke-width="1.5"></path><path d="M708.03 645.62L818.54 639.34" stroke="hsl(228.5, 77.2%, 51.5%)" stroke-width="1.5"></path><path d="M708.03 645.62L794.68 524.78" stroke="hsl(228.5, 77.2%, 51.5%)" stroke-width="1.5"></path><path d="M708.03 645.62L676.09 401.56" stroke="hsl(228.5, 77.2%, 51.5%)" stroke-width="1.5"></path><path d="M794.68 524.78L794.68 524.78" stroke="hsl(228.5, 77.2%, 51.5%)" stroke-width="1.5"></path><path d="M794.68 524.78L818.54 639.34" stroke="hsl(228.5, 77.2%, 51.5%)" stroke-width="1.5"></path><path d="M794.68 524.78L975.52 497.74" stroke="hsl(228.5, 77.2%, 51.5%)" stroke-width="1.5"></path><path d="M818.54 639.34L818.54 639.34" stroke="hsl(228.5, 77.2%, 51.5%)" stroke-width="1.5"></path><path d="M818.54 639.34L684.42 534.19" stroke="hsl(228.5, 77.2%, 51.5%)" stroke-width="1.5"></path><path d="M818.54 639.34L1001.42 687.72" stroke="hsl(228.5, 77.2%, 51.5%)" stroke-width="1.5"></path><path d="M818.54 639.34L975.52 497.74" stroke="hsl(228.5, 77.2%, 51.5%)" stroke-width="1.5"></path><path d="M975.52 497.74L975.52 497.74" stroke="hsl(228.5, 77.2%, 51.5%)" stroke-width="1.5"></path><path d="M975.52 497.74L1093.14 379.82" stroke="hsl(228.5, 77.2%, 51.5%)" stroke-width="1.5"></path><path d="M1001.42 687.72L1001.42 687.72" stroke="hsl(228.5, 77.2%, 51.5%)" stroke-width="1.5"></path><path d="M1001.42 687.72L975.52 497.74" stroke="hsl(228.5, 77.2%, 51.5%)" stroke-width="1.5"></path><path d="M1001.42 687.72L1159.35 514.41" stroke="hsl(228.5, 77.2%, 51.5%)" stroke-width="1.5"></path><path d="M1001.42 687.72L1250.77 660.97" stroke="hsl(228.5, 77.2%, 51.5%)" stroke-width="1.5"></path><path d="M1001.42 687.72L794.68 524.78" stroke="hsl(228.5, 77.2%, 51.5%)" stroke-width="1.5"></path><path d="M1162.4 59L1162.4 59" stroke="hsl(228.5, 77.2%, 51.5%)" stroke-width="1.5"></path><path d="M1162.4 59L1300.81 65.52" stroke="hsl(228.5, 77.2%, 51.5%)" stroke-width="1.5"></path><path d="M1162.4 59L1262.5 206.53" stroke="hsl(228.5, 77.2%, 51.5%)" stroke-width="1.5"></path><path d="M1100.69 248.09L1100.69 248.09" stroke="hsl(228.5, 77.2%, 51.5%)" stroke-width="1.5"></path><path d="M1100.69 248.09L1093.14 379.82" stroke="hsl(228.5, 77.2%, 51.5%)" stroke-width="1.5"></path><path d="M1093.14 379.82L1093.14 379.82" stroke="hsl(228.5, 77.2%, 51.5%)" stroke-width="1.5"></path><path d="M1279.44 -75.69L1279.44 -75.69" stroke="hsl(228.5, 77.2%, 51.5%)" stroke-width="1.5"></path><path d="M1279.44 -75.69L1412.57 -43.02" stroke="hsl(228.5, 77.2%, 51.5%)" stroke-width="1.5"></path><path d="M1279.44 -75.69L1300.81 65.52" stroke="hsl(228.5, 77.2%, 51.5%)" stroke-width="1.5"></path><path d="M1279.44 -75.69L1162.4 59" stroke="hsl(228.5, 77.2%, 51.5%)" stroke-width="1.5"></path><path d="M1300.81 65.52L1300.81 65.52" stroke="hsl(228.5, 77.2%, 51.5%)" stroke-width="1.5"></path><path d="M1300.81 65.52L1434.77 111.22" stroke="hsl(228.5, 77.2%, 51.5%)" stroke-width="1.5"></path><path d="M1262.5 206.53L1262.5 206.53" stroke="hsl(228.5, 77.2%, 51.5%)" stroke-width="1.5"></path><path d="M1262.5 206.53L1300.81 65.52" stroke="hsl(228.5, 77.2%, 51.5%)" stroke-width="1.5"></path><path d="M1304.13 402.36L1304.13 402.36" stroke="hsl(228.5, 77.2%, 51.5%)" stroke-width="1.5"></path><path d="M1250.77 660.97L1250.77 660.97" stroke="hsl(228.5, 77.2%, 51.5%)" stroke-width="1.5"></path><path d="M1250.77 660.97L1418.35 685.87" stroke="hsl(228.5, 77.2%, 51.5%)" stroke-width="1.5"></path><path d="M1250.77 660.97L1159.35 514.41" stroke="hsl(228.5, 77.2%, 51.5%)" stroke-width="1.5"></path><path d="M1250.77 660.97L1404.5 552.63" stroke="hsl(228.5, 77.2%, 51.5%)" stroke-width="1.5"></path><path d="M1412.57 -43.02L1412.57 -43.02" stroke="hsl(228.5, 77.2%, 51.5%)" stroke-width="1.5"></path><path d="M1412.57 -43.02L1552.37 -84.78" stroke="hsl(228.5, 77.2%, 51.5%)" stroke-width="1.5"></path><path d="M1412.57 -43.02L1300.81 65.52" stroke="hsl(228.5, 77.2%, 51.5%)" stroke-width="1.5"></path><path d="M1412.57 -43.02L1434.77 111.22" stroke="hsl(228.5, 77.2%, 51.5%)" stroke-width="1.5"></path><path d="M1434.77 111.22L1434.77 111.22" stroke="hsl(228.5, 77.2%, 51.5%)" stroke-width="1.5"></path><path d="M1404.5 552.63L1404.5 552.63" stroke="hsl(228.5, 77.2%, 51.5%)" stroke-width="1.5"></path><path d="M1404.5 552.63L1418.35 685.87" stroke="hsl(228.5, 77.2%, 51.5%)" stroke-width="1.5"></path><path d="M1418.35 685.87L1418.35 685.87" stroke="hsl(228.5, 77.2%, 51.5%)" stroke-width="1.5"></path><path d="M1418.35 685.87L1599.08 677.1" stroke="hsl(228.5, 77.2%, 51.5%)" stroke-width="1.5"></path><path d="M1418.35 685.87L1299.78 523.56" stroke="hsl(228.5, 77.2%, 51.5%)" stroke-width="1.5"></path><path d="M1418.35 685.87L1556.29 526.82" stroke="hsl(228.5, 77.2%, 51.5%)" stroke-width="1.5"></path><path d="M1552.37 -84.78L1552.37 -84.78" stroke="hsl(228.5, 77.2%, 51.5%)" stroke-width="1.5"></path><path d="M1552.37 -84.78L1434.77 111.22" stroke="hsl(228.5, 77.2%, 51.5%)" stroke-width="1.5"></path><path d="M1552.37 -84.78L1279.44 -75.69" stroke="hsl(228.5, 77.2%, 51.5%)" stroke-width="1.5"></path><path d="M1565.35 211.85L1565.35 211.85" stroke="hsl(228.5, 77.2%, 51.5%)" stroke-width="1.5"></path><path d="M1565.35 211.85L1604.39 339.39" stroke="hsl(228.5, 77.2%, 51.5%)" stroke-width="1.5"></path><path d="M1604.39 339.39L1604.39 339.39" stroke="hsl(228.5, 77.2%, 51.5%)" stroke-width="1.5"></path><path d="M1604.39 339.39L1556.29 526.82" stroke="hsl(228.5, 77.2%, 51.5%)" stroke-width="1.5"></path><path d="M1604.39 339.39L1415.21 228.68" stroke="hsl(228.5, 77.2%, 51.5%)" stroke-width="1.5"></path><path d="M1556.29 526.82L1556.29 526.82" stroke="hsl(228.5, 77.2%, 51.5%)" stroke-width="1.5"></path><path d="M1556.29 526.82L1404.5 552.63" stroke="hsl(228.5, 77.2%, 51.5%)" stroke-width="1.5"></path><path d="M1556.29 526.82L1599.08 677.1" stroke="hsl(228.5, 77.2%, 51.5%)" stroke-width="1.5"></path><path d="M1556.29 526.82L1299.78 523.56" stroke="hsl(228.5, 77.2%, 51.5%)" stroke-width="1.5"></path><path d="M1556.29 526.82L1304.13 402.36" stroke="hsl(228.5, 77.2%, 51.5%)" stroke-width="1.5"></path><path d="M1599.08 677.1L1599.08 677.1" stroke="hsl(228.5, 77.2%, 51.5%)" stroke-width="1.5"></path><path d="M1599.08 677.1L1404.5 552.63" stroke="hsl(228.5, 77.2%, 51.5%)" stroke-width="1.5"></path><path d="M1599.08 677.1L1299.78 523.56" stroke="hsl(228.5, 77.2%, 51.5%)" stroke-width="1.5"></path><circle r="25" cx="401.73" cy="660.4" fill="url(&quot;#SvgjsRadialGradient1001&quot;)"></circle><circle r="25" cx="844.36" cy="346.65" fill="url(&quot;#SvgjsRadialGradient1001&quot;)"></circle><circle r="25" cx="975.24" cy="259.16" fill="url(&quot;#SvgjsRadialGradient1001&quot;)"></circle><circle r="25" cx="981.52" cy="355.04" fill="url(&quot;#SvgjsRadialGradient1001&quot;)"></circle><circle r="25" cx="1159.35" cy="514.41" fill="url(&quot;#SvgjsRadialGradient1001&quot;)"></circle><circle r="25" cx="1114.71" cy="669.06" fill="url(&quot;#SvgjsRadialGradient1001&quot;)"></circle><circle r="25" cx="1299.78" cy="523.56" fill="url(&quot;#SvgjsRadialGradient1001&quot;)"></circle><circle r="25" cx="1415.21" cy="228.68" fill="url(&quot;#SvgjsRadialGradient1001&quot;)"></circle><circle r="25" cx="1543.09" cy="44.35" fill="url(&quot;#SvgjsRadialGradient1001&quot;)"></circle><circle r="5" cx="-62.39" cy="518.15" fill="#8b9ad9"></circle><circle r="5" cx="109.86" cy="544.59" fill="#8b9ad9"></circle><circle r="5" cx="38.92" cy="665.8" fill="#8b9ad9"></circle><circle r="5" cx="198.76" cy="541.63" fill="#8b9ad9"></circle><circle r="5" cx="196.17" cy="691.05" fill="#8b9ad9"></circle><circle r="5" cx="350.64" cy="518.35" fill="#8b9ad9"></circle><circle r="5" cx="508.79" cy="501.09" fill="#8b9ad9"></circle><circle r="5" cx="676.09" cy="401.56" fill="#8b9ad9"></circle><circle r="5" cx="684.42" cy="534.19" fill="#8b9ad9"></circle><circle r="5" cx="708.03" cy="645.62" fill="#8b9ad9"></circle><circle r="5" cx="794.68" cy="524.78" fill="#8b9ad9"></circle><circle r="5" cx="818.54" cy="639.34" fill="#8b9ad9"></circle><circle r="5" cx="975.52" cy="497.74" fill="#8b9ad9"></circle><circle r="5" cx="1001.42" cy="687.72" fill="#8b9ad9"></circle><circle r="5" cx="1162.4" cy="59" fill="#8b9ad9"></circle><circle r="5" cx="1100.69" cy="248.09" fill="#8b9ad9"></circle><circle r="5" cx="1093.14" cy="379.82" fill="#8b9ad9"></circle><circle r="5" cx="1279.44" cy="-75.69" fill="#8b9ad9"></circle><circle r="5" cx="1300.81" cy="65.52" fill="#8b9ad9"></circle><circle r="5" cx="1262.5" cy="206.53" fill="#8b9ad9"></circle><circle r="5" cx="1304.13" cy="402.36" fill="#8b9ad9"></circle><circle r="5" cx="1250.77" cy="660.97" fill="#8b9ad9"></circle><circle r="5" cx="1412.57" cy="-43.02" fill="#8b9ad9"></circle><circle r="5" cx="1434.77" cy="111.22" fill="#8b9ad9"></circle><circle r="5" cx="1404.5" cy="552.63" fill="#8b9ad9"></circle><circle r="5" cx="1418.35" cy="685.87" fill="#8b9ad9"></circle><circle r="5" cx="1552.37" cy="-84.78" fill="#8b9ad9"></circle><circle r="5" cx="1565.35" cy="211.85" fill="#8b9ad9"></circle><circle r="5" cx="1604.39" cy="339.39" fill="#8b9ad9"></circle><circle r="5" cx="1556.29" cy="526.82" fill="#8b9ad9"></circle><circle r="5" cx="1599.08" cy="677.1" fill="#8b9ad9"></circle></g><defs><mask id="SvgjsMask1000"><rect width="1440" height="560" fill="#ffffff"></rect></mask><radialGradient id="SvgjsRadialGradient1001"><stop stop-color="#ffffff" offset="0.1"></stop><stop stop-color="#1735b3" offset="0.2"></stop><stop stop-color="rgba(23, 53, 179, 0)" offset="1"></stop></radialGradient></defs></svg>